<mxfile host="app.diagrams.net" agent="Mozilla/5.0 (X11; Linux x86_64) AppleWebKit/537.36 (KHTML, like Gecko) Chrome/125.0.0.0 Safari/537.36" version="24.8.4">
  <diagram name="Page-1" id="tMRFHP5p-LFzW88CfEth">
    <mxGraphModel dx="917" dy="657" grid="1" gridSize="10" guides="1" tooltips="1" connect="1" arrows="1" fold="1" page="1" pageScale="1" pageWidth="827" pageHeight="1169" math="0" shadow="0">
      <root>
        <mxCell id="0" />
        <mxCell id="1" parent="0" />
        <mxCell id="_5j-xkA9-BKe6-_lW6Nw-1" value="&lt;h1 style=&quot;line-height: 205%;&quot;&gt;&lt;font color=&quot;#000000&quot; style=&quot;font-size: 32px;&quot;&gt;&lt;u&gt;VMAware library structure&lt;/u&gt;&lt;/font&gt;&lt;/h1&gt;" style="rounded=1;whiteSpace=wrap;html=1;fillColor=#bac8d3;strokeColor=#23445d;verticalAlign=top;" parent="1" vertex="1">
          <mxGeometry x="70" y="40" width="880" height="510" as="geometry" />
        </mxCell>
        <mxCell id="_5j-xkA9-BKe6-_lW6Nw-5" value="&lt;h3 style=&quot;line-height: 30%;&quot;&gt;&lt;font style=&quot;font-size: 15px;&quot; color=&quot;#000000&quot;&gt;PRIVATE COMPONENTS&lt;/font&gt;&lt;/h3&gt;" style="rounded=1;whiteSpace=wrap;html=1;dashed=1;horizontal=1;verticalAlign=top;fillColor=#9EBAD3;strokeColor=#23445d;strokeWidth=1;" parent="1" vertex="1">
          <mxGeometry x="100" y="120" width="390" height="410" as="geometry" />
        </mxCell>
        <mxCell id="_5j-xkA9-BKe6-_lW6Nw-2" value="&lt;p style=&quot;line-height: 600%;&quot;&gt;&lt;font color=&quot;#000000&quot;&gt;&lt;br&gt;&lt;/font&gt;&lt;/p&gt;" style="rounded=1;whiteSpace=wrap;html=1;fillColor=#fad9d5;strokeColor=#ae4132;" parent="1" vertex="1">
          <mxGeometry x="140" y="450" width="320" height="60" as="geometry" />
        </mxCell>
        <mxCell id="_5j-xkA9-BKe6-_lW6Nw-4" value="&lt;font color=&quot;#000000&quot;&gt;&lt;b&gt;cpu&lt;/b&gt;&lt;br&gt;(for CPU operations)&lt;br&gt;&lt;/font&gt;" style="rounded=1;whiteSpace=wrap;html=1;fillColor=#b0e3e6;strokeColor=#0e8088;" parent="1" vertex="1">
          <mxGeometry x="140" y="238" width="140" height="60" as="geometry" />
        </mxCell>
        <mxCell id="_5j-xkA9-BKe6-_lW6Nw-3" value="&lt;font color=&quot;#000000&quot;&gt;&lt;b&gt;memoization&lt;/b&gt;&lt;br&gt;(for caching operations)&lt;br&gt;&lt;/font&gt;" style="rounded=1;whiteSpace=wrap;html=1;fillColor=#b1ddf0;strokeColor=#10739e;" parent="1" vertex="1">
          <mxGeometry x="140" y="168" width="140" height="59" as="geometry" />
        </mxCell>
        <mxCell id="_5j-xkA9-BKe6-_lW6Nw-6" value="&lt;font color=&quot;#000000&quot;&gt;&lt;b&gt;&lt;u&gt;technique table&lt;br&gt;&lt;/u&gt;&lt;/b&gt;&lt;br&gt;(stores all the VM detection techniques)&lt;br&gt;&lt;/font&gt;" style="rounded=1;whiteSpace=wrap;html=1;fillColor=#fad7ac;strokeColor=#b46504;enumerate=0;" parent="1" vertex="1">
          <mxGeometry x="320" y="165" width="140" height="130" as="geometry" />
        </mxCell>
        <mxCell id="_5j-xkA9-BKe6-_lW6Nw-13" value="&lt;font color=&quot;#000000&quot;&gt;&lt;b&gt;&lt;u&gt;brand table&lt;br&gt;&lt;/u&gt;&lt;/b&gt;&lt;/font&gt;&lt;div&gt;&lt;br&gt;&lt;font color=&quot;#000000&quot;&gt;(stores a scoreboard table of every VM brand)&lt;/font&gt;&lt;/div&gt;" style="rounded=1;whiteSpace=wrap;html=1;fillColor=#d0cee2;strokeColor=#56517e;verticalAlign=middle;" parent="1" vertex="1">
          <mxGeometry x="320" y="323" width="140" height="110" as="geometry" />
        </mxCell>
        <mxCell id="_5j-xkA9-BKe6-_lW6Nw-16" value="" style="endArrow=classic;html=1;rounded=0;exitX=0.5;exitY=1;exitDx=0;exitDy=0;entryX=0.5;entryY=0;entryDx=0;entryDy=0;strokeColor=#000000;" parent="1" source="_5j-xkA9-BKe6-_lW6Nw-6" target="_5j-xkA9-BKe6-_lW6Nw-13" edge="1">
          <mxGeometry width="50" height="50" relative="1" as="geometry">
            <mxPoint x="470" y="230" as="sourcePoint" />
            <mxPoint x="520" y="180" as="targetPoint" />
          </mxGeometry>
        </mxCell>
        <mxCell id="_5j-xkA9-BKe6-_lW6Nw-19" value="&lt;h3 style=&quot;line-height: 20%;&quot;&gt;&lt;font color=&quot;#000000&quot;&gt;PUBLIC COMPONENTS&lt;/font&gt;&lt;/h3&gt;" style="rounded=1;whiteSpace=wrap;html=1;dashed=1;horizontal=1;verticalAlign=top;fillColor=#9CA9D3;strokeColor=#23445d;strokeWidth=1;" parent="1" vertex="1">
          <mxGeometry x="640" y="120" width="280" height="410" as="geometry" />
        </mxCell>
        <mxCell id="_5j-xkA9-BKe6-_lW6Nw-17" value="&lt;b&gt;VM::brand()&lt;/b&gt;" style="rounded=0;whiteSpace=wrap;html=1;fillColor=#eeeeee;strokeColor=#36393d;fontColor=#000000;" parent="1" vertex="1">
          <mxGeometry x="660" y="400" width="119.5" height="50" as="geometry" />
        </mxCell>
        <mxCell id="_5j-xkA9-BKe6-_lW6Nw-23" value="" style="endArrow=classic;html=1;rounded=0;exitX=1;exitY=0.5;exitDx=0;exitDy=0;entryX=0;entryY=0.75;entryDx=0;entryDy=0;strokeColor=#000000;" parent="1" source="_5j-xkA9-BKe6-_lW6Nw-13" target="_5j-xkA9-BKe6-_lW6Nw-17" edge="1">
          <mxGeometry width="50" height="50" relative="1" as="geometry">
            <mxPoint x="550" y="230" as="sourcePoint" />
            <mxPoint x="600" y="180" as="targetPoint" />
            <Array as="points">
              <mxPoint x="510" y="378" />
              <mxPoint x="510" y="438" />
            </Array>
          </mxGeometry>
        </mxCell>
        <mxCell id="_5j-xkA9-BKe6-_lW6Nw-26" value="&lt;b&gt;VM::detect()&lt;/b&gt;" style="rounded=0;whiteSpace=wrap;html=1;fillColor=#eeeeee;strokeColor=#36393d;fontColor=#000000;" parent="1" vertex="1">
          <mxGeometry x="660" y="340" width="119.5" height="50" as="geometry" />
        </mxCell>
        <mxCell id="_5j-xkA9-BKe6-_lW6Nw-30" value="&lt;b&gt;VM::percentage()&lt;/b&gt;" style="rounded=0;whiteSpace=wrap;html=1;fillColor=#eeeeee;strokeColor=#36393d;fontColor=#000000;" parent="1" vertex="1">
          <mxGeometry x="660" y="280" width="119.5" height="50" as="geometry" />
        </mxCell>
        <mxCell id="_5j-xkA9-BKe6-_lW6Nw-32" value="Returns the most likely VM brand" style="rounded=0;whiteSpace=wrap;html=1;fillColor=#eeeeee;strokeColor=#36393d;fontColor=#000000;" parent="1" vertex="1">
          <mxGeometry x="779.5" y="400" width="119.5" height="50" as="geometry" />
        </mxCell>
        <mxCell id="_5j-xkA9-BKe6-_lW6Nw-34" value="Returns a boolean &lt;br&gt;true or false value whether it&#39;s a VM" style="rounded=0;whiteSpace=wrap;html=1;fillColor=#eeeeee;strokeColor=#36393d;fontColor=#000000;" parent="1" vertex="1">
          <mxGeometry x="779.5" y="340" width="119.5" height="50" as="geometry" />
        </mxCell>
        <mxCell id="_5j-xkA9-BKe6-_lW6Nw-36" value="&lt;b&gt;VM::check()&lt;/b&gt;" style="rounded=0;whiteSpace=wrap;html=1;fillColor=#eeeeee;strokeColor=#36393d;fontColor=#000000;" parent="1" vertex="1">
          <mxGeometry x="660" y="220" width="119.5" height="50" as="geometry" />
        </mxCell>
        <mxCell id="_5j-xkA9-BKe6-_lW6Nw-38" value="&lt;font color=&quot;#ffffff&quot;&gt;Run every VM detection technique in the table&lt;/font&gt;" style="rounded=1;whiteSpace=wrap;html=1;gradientColor=none;fillColor=#000000;" parent="1" vertex="1">
          <mxGeometry x="520" y="256" width="80" height="128" as="geometry" />
        </mxCell>
        <mxCell id="_5j-xkA9-BKe6-_lW6Nw-45" value="" style="endArrow=classic;html=1;rounded=0;exitX=0;exitY=0.5;exitDx=0;exitDy=0;entryX=1;entryY=0.75;entryDx=0;entryDy=0;strokeColor=#000000;startArrow=classic;startFill=1;" parent="1" source="_5j-xkA9-BKe6-_lW6Nw-38" target="_5j-xkA9-BKe6-_lW6Nw-6" edge="1">
          <mxGeometry width="50" height="50" relative="1" as="geometry">
            <mxPoint x="630" y="240" as="sourcePoint" />
            <mxPoint x="680" y="190" as="targetPoint" />
            <Array as="points">
              <mxPoint x="500" y="320" />
              <mxPoint x="500" y="263" />
            </Array>
          </mxGeometry>
        </mxCell>
        <mxCell id="_5j-xkA9-BKe6-_lW6Nw-47" value="Returns a 0 to 100 percentage of how likely it&#39;s a VM" style="rounded=0;whiteSpace=wrap;html=1;fillColor=#eeeeee;strokeColor=#36393d;fontColor=#000000;" parent="1" vertex="1">
          <mxGeometry x="779.5" y="280" width="119.5" height="50" as="geometry" />
        </mxCell>
        <mxCell id="_5j-xkA9-BKe6-_lW6Nw-48" value="" style="endArrow=classic;html=1;rounded=0;entryX=1;entryY=0.5;entryDx=0;entryDy=0;exitX=0;exitY=0.5;exitDx=0;exitDy=0;strokeColor=#000000;startArrow=classic;startFill=1;" parent="1" source="_5j-xkA9-BKe6-_lW6Nw-36" target="_5j-xkA9-BKe6-_lW6Nw-6" edge="1">
          <mxGeometry width="50" height="50" relative="1" as="geometry">
            <mxPoint x="820" y="260" as="sourcePoint" />
            <mxPoint x="870" y="210" as="targetPoint" />
            <Array as="points">
              <mxPoint x="620" y="245" />
              <mxPoint x="620" y="230" />
            </Array>
          </mxGeometry>
        </mxCell>
        <mxCell id="_5j-xkA9-BKe6-_lW6Nw-49" value="Returns the result of a single specific technique" style="rounded=0;whiteSpace=wrap;html=1;fillColor=#eeeeee;strokeColor=#36393d;fontColor=#000000;" parent="1" vertex="1">
          <mxGeometry x="779.5" y="220" width="119.5" height="50" as="geometry" />
        </mxCell>
        <mxCell id="_5j-xkA9-BKe6-_lW6Nw-57" value="&lt;font color=&quot;#000000&quot;&gt;&lt;b&gt;core&lt;/b&gt;&lt;br&gt;(for key operations)&lt;br&gt;&lt;/font&gt;" style="rounded=1;whiteSpace=wrap;html=1;fillColor=#bac8d3;strokeColor=#23445d;" parent="1" vertex="1">
          <mxGeometry x="139" y="309" width="140" height="60" as="geometry" />
        </mxCell>
        <mxCell id="_5j-xkA9-BKe6-_lW6Nw-81" value="&lt;b&gt;VM::add_custom()&lt;/b&gt;" style="rounded=0;whiteSpace=wrap;html=1;fillColor=#eeeeee;strokeColor=#36393d;fontColor=#000000;" parent="1" vertex="1">
          <mxGeometry x="660" y="160" width="119.5" height="50" as="geometry" />
        </mxCell>
        <mxCell id="_5j-xkA9-BKe6-_lW6Nw-83" value="Adds a custom VM detection technique&amp;nbsp;" style="rounded=0;whiteSpace=wrap;html=1;fillColor=#eeeeee;strokeColor=#36393d;fontColor=#000000;" parent="1" vertex="1">
          <mxGeometry x="779.5" y="160" width="119.5" height="50" as="geometry" />
        </mxCell>
        <mxCell id="_5j-xkA9-BKe6-_lW6Nw-84" value="" style="endArrow=classic;html=1;rounded=0;exitX=0;exitY=0.5;exitDx=0;exitDy=0;entryX=1;entryY=0.25;entryDx=0;entryDy=0;strokeColor=#000000;" parent="1" source="_5j-xkA9-BKe6-_lW6Nw-81" target="_5j-xkA9-BKe6-_lW6Nw-6" edge="1">
          <mxGeometry width="50" height="50" relative="1" as="geometry">
            <mxPoint x="660" y="310" as="sourcePoint" />
            <mxPoint x="710" y="260" as="targetPoint" />
            <Array as="points">
              <mxPoint x="620" y="185" />
              <mxPoint x="620" y="198" />
            </Array>
          </mxGeometry>
        </mxCell>
        <mxCell id="_5j-xkA9-BKe6-_lW6Nw-91" value="" style="endArrow=none;html=1;rounded=0;entryX=1;entryY=0.5;entryDx=0;entryDy=0;sourcePerimeterSpacing=0;strokeColor=#000000;endFill=0;startArrow=classic;startFill=1;exitX=0;exitY=0.5;exitDx=0;exitDy=0;" parent="1" source="_5j-xkA9-BKe6-_lW6Nw-6" target="pgbCubQ6v-AuUjqeAURg-1" edge="1">
          <mxGeometry width="50" height="50" relative="1" as="geometry">
            <mxPoint x="300" y="250" as="sourcePoint" />
            <mxPoint x="440" y="260" as="targetPoint" />
            <Array as="points">
              <mxPoint x="300" y="230" />
              <mxPoint x="300" y="409" />
            </Array>
          </mxGeometry>
        </mxCell>
        <mxCell id="cPlAHG-HkCh-T9TprcrS-1" value="" style="endArrow=classic;html=1;rounded=0;exitX=0;exitY=0.25;exitDx=0;exitDy=0;entryX=1;entryY=0.75;entryDx=0;entryDy=0;strokeColor=#000000;" parent="1" source="_5j-xkA9-BKe6-_lW6Nw-17" target="_5j-xkA9-BKe6-_lW6Nw-38" edge="1">
          <mxGeometry width="50" height="50" relative="1" as="geometry">
            <mxPoint x="570" y="290" as="sourcePoint" />
            <mxPoint x="620" y="240" as="targetPoint" />
            <Array as="points">
              <mxPoint x="620" y="413" />
              <mxPoint x="620" y="352" />
            </Array>
          </mxGeometry>
        </mxCell>
        <mxCell id="cPlAHG-HkCh-T9TprcrS-2" value="" style="endArrow=classic;startArrow=classic;html=1;rounded=0;entryX=0;entryY=0.5;entryDx=0;entryDy=0;exitX=1;exitY=0.25;exitDx=0;exitDy=0;strokeColor=#000000;" parent="1" source="_5j-xkA9-BKe6-_lW6Nw-38" target="_5j-xkA9-BKe6-_lW6Nw-30" edge="1">
          <mxGeometry width="50" height="50" relative="1" as="geometry">
            <mxPoint x="570" y="290" as="sourcePoint" />
            <mxPoint x="620" y="240" as="targetPoint" />
            <Array as="points">
              <mxPoint x="630" y="288" />
              <mxPoint x="630" y="305" />
            </Array>
          </mxGeometry>
        </mxCell>
        <mxCell id="cPlAHG-HkCh-T9TprcrS-3" value="" style="endArrow=classic;startArrow=classic;html=1;rounded=0;entryX=0;entryY=0.5;entryDx=0;entryDy=0;exitX=1;exitY=0.5;exitDx=0;exitDy=0;strokeColor=#000000;" parent="1" source="_5j-xkA9-BKe6-_lW6Nw-38" target="_5j-xkA9-BKe6-_lW6Nw-26" edge="1">
          <mxGeometry width="50" height="50" relative="1" as="geometry">
            <mxPoint x="570" y="290" as="sourcePoint" />
            <mxPoint x="620" y="240" as="targetPoint" />
            <Array as="points">
              <mxPoint x="630" y="320" />
              <mxPoint x="630" y="365" />
            </Array>
          </mxGeometry>
        </mxCell>
        <mxCell id="GsFwuIZayCYaH_RebeOi-1" value="" style="endArrow=none;html=1;rounded=0;exitX=1;exitY=0.5;exitDx=0;exitDy=0;strokeColor=#000000;" parent="1" edge="1">
          <mxGeometry width="50" height="50" relative="1" as="geometry">
            <mxPoint x="279" y="338" as="sourcePoint" />
            <mxPoint x="300" y="338" as="targetPoint" />
          </mxGeometry>
        </mxCell>
        <mxCell id="GsFwuIZayCYaH_RebeOi-4" value="" style="endArrow=classic;startArrow=classic;html=1;rounded=0;entryX=1;entryY=0.5;entryDx=0;entryDy=0;exitX=0;exitY=0.25;exitDx=0;exitDy=0;strokeColor=#000000;" parent="1" source="_5j-xkA9-BKe6-_lW6Nw-6" target="_5j-xkA9-BKe6-_lW6Nw-3" edge="1">
          <mxGeometry width="50" height="50" relative="1" as="geometry">
            <mxPoint x="460" y="290" as="sourcePoint" />
            <mxPoint x="510" y="240" as="targetPoint" />
          </mxGeometry>
        </mxCell>
        <mxCell id="pgbCubQ6v-AuUjqeAURg-1" value="&lt;font color=&quot;#000000&quot;&gt;&lt;b&gt;wmi&lt;/b&gt;&lt;br&gt;(for WMI operations)&lt;br&gt;&lt;/font&gt;" style="rounded=1;whiteSpace=wrap;html=1;fillColor=#fff2cc;strokeColor=#d6b656;" vertex="1" parent="1">
          <mxGeometry x="140" y="379" width="140" height="60" as="geometry" />
        </mxCell>
        <mxCell id="pgbCubQ6v-AuUjqeAURg-4" value="" style="endArrow=none;html=1;rounded=0;strokeColor=#000000;entryX=1;entryY=0.5;entryDx=0;entryDy=0;" edge="1" parent="1" target="_5j-xkA9-BKe6-_lW6Nw-4">
          <mxGeometry width="50" height="50" relative="1" as="geometry">
            <mxPoint x="300" y="268" as="sourcePoint" />
            <mxPoint x="320" y="395" as="targetPoint" />
          </mxGeometry>
        </mxCell>
        <mxCell id="pgbCubQ6v-AuUjqeAURg-6" value="&lt;b&gt;VM::type()&lt;/b&gt;" style="rounded=0;whiteSpace=wrap;html=1;fillColor=#eeeeee;strokeColor=#36393d;fontColor=#000000;" vertex="1" parent="1">
          <mxGeometry x="660" y="460" width="119.5" height="50" as="geometry" />
        </mxCell>
        <mxCell id="pgbCubQ6v-AuUjqeAURg-7" value="Returns the VM type" style="rounded=0;whiteSpace=wrap;html=1;fillColor=#eeeeee;strokeColor=#36393d;fontColor=#000000;" vertex="1" parent="1">
          <mxGeometry x="779.5" y="460" width="119.5" height="50" as="geometry" />
        </mxCell>
        <mxCell id="pgbCubQ6v-AuUjqeAURg-11" value="&lt;span style=&quot;color: rgb(0, 0, 0); font-family: Helvetica; font-size: 12px; font-style: normal; font-variant-ligatures: normal; font-variant-caps: normal; font-weight: 400; letter-spacing: normal; orphans: 2; text-align: center; text-indent: 0px; text-transform: none; widows: 2; word-spacing: 0px; -webkit-text-stroke-width: 0px; white-space: normal; text-decoration-thickness: initial; text-decoration-style: initial; text-decoration-color: initial; float: none; display: inline !important;&quot;&gt;(for general operations)&lt;/span&gt;" style="text;whiteSpace=wrap;html=1;labelBackgroundColor=none;" vertex="1" parent="1">
          <mxGeometry x="160" y="476" width="160" height="40" as="geometry" />
        </mxCell>
        <mxCell id="pgbCubQ6v-AuUjqeAURg-12" value="Hyper-X &lt;br&gt;mechanism" style="rounded=1;whiteSpace=wrap;html=1;fillColor=#f5f5f5;strokeColor=#666666;fontColor=#333333;" vertex="1" parent="1">
          <mxGeometry x="330" y="460" width="120" height="40" as="geometry" />
        </mxCell>
        <mxCell id="7AdtAhcc7P1wAnRB1Y1h-3" value="&lt;b&gt;utility&lt;/b&gt;" style="text;html=1;align=center;verticalAlign=middle;whiteSpace=wrap;rounded=0;" vertex="1" parent="1">
          <mxGeometry x="200" y="456" width="60" height="30" as="geometry" />
        </mxCell>
        <mxCell id="7AdtAhcc7P1wAnRB1Y1h-5" value="" style="endArrow=none;html=1;rounded=0;" edge="1" parent="1">
          <mxGeometry width="50" height="50" relative="1" as="geometry">
            <mxPoint x="300" y="450" as="sourcePoint" />
            <mxPoint x="300" y="370" as="targetPoint" />
          </mxGeometry>
        </mxCell>
        <mxCell id="7AdtAhcc7P1wAnRB1Y1h-8" value="" style="endArrow=none;html=1;rounded=0;exitX=0;exitY=0.25;exitDx=0;exitDy=0;" edge="1" parent="1" source="pgbCubQ6v-AuUjqeAURg-6">
          <mxGeometry width="50" height="50" relative="1" as="geometry">
            <mxPoint x="470" y="340" as="sourcePoint" />
            <mxPoint x="620" y="410" as="targetPoint" />
            <Array as="points">
              <mxPoint x="620" y="473" />
            </Array>
          </mxGeometry>
        </mxCell>
        <mxCell id="7AdtAhcc7P1wAnRB1Y1h-9" value="" style="endArrow=classic;html=1;rounded=0;entryX=0;entryY=0.75;entryDx=0;entryDy=0;" edge="1" parent="1" target="pgbCubQ6v-AuUjqeAURg-6">
          <mxGeometry width="50" height="50" relative="1" as="geometry">
            <mxPoint x="600" y="438" as="sourcePoint" />
            <mxPoint x="660" y="495.5" as="targetPoint" />
            <Array as="points">
              <mxPoint x="600" y="498" />
            </Array>
          </mxGeometry>
        </mxCell>
      </root>
    </mxGraphModel>
  </diagram>
</mxfile>
